<svg width="80" height="80" fill="none" xmlns="http://www.w3.org/2000/svg"><path d="M33.281 79.987c-.396-.28-.88-.24-1.322-.346a13.361 13.361 0 01-10.212-12.316c-.028-.575-.225-.663-.733-.661-4.397.019-8.794.019-13.192 0-3.125-.01-5.494-1.933-5.998-4.944-.349-2.076.312-3.873 1.898-5.26 3.034-2.655 5.325-5.82 6.69-9.63a22.471 22.471 0 001.318-7.644v-8.98C11.75 18.85 19.4 9.44 30.528 7.12c3.092-.644 6.197-.574 9.296.06.525.105.468.312.312.68a21.783 21.783 0 00-1.719 9.75C38.9 26 42.802 32.362 49.933 36.756c2.416 1.488 5.067 2.394 7.858 2.869.495.083.612.255.639.731.348 6.157 2.77 11.352 7.331 15.513 1.2 1.093 2.236 2.256 2.5 3.923.584 3.738-2.072 6.846-5.914 6.875-4.242.027-8.483 0-12.725 0-1.21 0-1.21 0-1.319 1.22a13.31 13.31 0 01-9.589 11.588c-.662.186-1.334.338-2.003.505l-3.43.007z" fill="#FBE303"/><path d="M63.583.01c.844.2 1.695.377 2.533.605 7.442 2.032 12.647 9.113 12.25 16.655-.422 8.003-6.066 14.48-13.79 15.824-9.298 1.618-18.126-4.852-19.39-14.207C44 10.107 49.96 1.903 58.678.294c.283-.052.625 0 .844-.279l4.061-.004z" fill="#454950"/></svg>