<svg width="80" height="80" fill="none" xmlns="http://www.w3.org/2000/svg"><path d="M0 65.005V15.001l.313-.096c.09.225.312.264.5.336A23825.367 23825.367 0 0036.625 28.67c1.165.434 2.283 1.026 3.54 1.192-.216.36-.156.76-.156 1.144v47.997c0 .313.145.707-.313.857-.1-.028-.202-.051-.297-.087L0 65.005zm20.012.168c0-1.564-.031-3.04.016-4.514.019-.61-.13-.948-.752-1.122-.698-.194-1.364-.498-2.045-.753L10 56.089c0 1.536.04 2.985-.017 4.433-.026.677.14 1.046.829 1.224.649.167 1.266.469 1.898.699l7.301 2.728z" fill="#FBE303"/><path d="M39.682 79.866c.47-.157.313-.547.313-.857.01-3.564.01-7.128 0-10.692V31.012c0-.385-.067-.782.156-1.145 2.996-1.108 5.997-2.196 8.982-3.331 1.867-.71 3.774-1.312 5.585-2.165.49.156.273.567.275.86.014 5.21.017 10.418.01 15.623v.964c.124-.01.248-.03.37-.06 3.047-1.137 6.097-2.29 9.143-3.412.447-.164.492-.444.492-.838-.009-5.627-.014-11.251-.014-16.872.19-.087.374-.189.568-.26l13.005-4.881c.395-.156.881-.156 1.12-.608l.313.12v49.998L48.303 76.886c-2.724 1.024-5.435 2.076-8.152 3.114h-.469a.18.18 0 000-.134z" fill="#FCEC41"/><path d="M54.724 24.37c-1.81.854-3.718 1.456-5.585 2.166-2.984 1.128-5.986 2.212-8.979 3.325-1.25-.166-2.375-.758-3.54-1.191a4132.65 4132.65 0 01-22.297-8.353C9.817 18.628 5.31 16.937.805 15.242c-.192-.072-.41-.112-.5-.337.169-.07.333-.145.503-.209 10.159-3.808 20.315-7.618 30.47-11.429 2.863-1.07 5.715-2.176 8.57-3.267h.312c.233.106.47.227.7.313L79.695 14.88c-.24.45-.726.46-1.121.608a3591.478 3591.478 0 01-13.005 4.88c-.194.073-.379.174-.568.262-4.751-2.123-9.508-4.235-14.25-6.378a1.613 1.613 0 00-1.465-.01c-1.877.835-3.782 1.614-5.673 2.419-1.152.49-2.298.991-3.549 1.53.227.122.313.178.407.218 3.585 1.475 7.178 2.934 10.753 4.434 1.173.491 2.395.873 3.5 1.528z" fill="#F1D900"/><path d="M20.005 65.171l-7.294-2.726c-.625-.236-1.25-.532-1.898-.699-.69-.178-.855-.547-.828-1.224.056-1.447.017-2.896.017-4.433l7.221 2.695c.682.255 1.348.56 2.045.753.626.174.771.511.752 1.123-.047 1.474-.015 2.948-.015 4.511zM54.723 24.37c-1.105-.648-2.328-1.03-3.5-1.52-3.576-1.501-7.169-2.96-10.754-4.435-.093-.04-.18-.095-.406-.217 1.25-.54 2.397-1.04 3.549-1.53 1.89-.806 3.794-1.584 5.672-2.42a1.613 1.613 0 011.465.01c4.742 2.143 9.5 4.255 14.251 6.378 0 5.628.005 11.252.014 16.872 0 .394-.045.674-.492.838-3.054 1.122-6.098 2.275-9.144 3.413-.121.03-.245.05-.37.059v-.97c0-5.212-.003-10.42-.01-15.624-.001-.292.215-.697-.275-.853z" fill="#454950"/></svg>