<svg width="80" height="80" fill="none" xmlns="http://www.w3.org/2000/svg"><path d="M79.986 15.011c-.44 1.283-.438 2.637-.611 3.961-.634 4.844-1.223 9.688-1.83 14.531-.328 2.63-.667 5.258-.983 7.89-.173 1.448-.58 1.945-1.996 2.138-4.041.555-8.086 1.078-12.13 1.617-4.919.657-9.837 1.315-14.755 1.974-5.255.7-10.51 1.398-15.762 2.094-2.574.343-5.146.71-7.717 1.064-1.007-1.161-1.399-2.583-1.691-4.04-1.65-8.217-3.294-16.433-4.931-24.65-.625-3.126-1.225-6.263-1.836-9.395.104 0 .208-.009.312-.009l61.818.002c1.012 0 1.68.395 2.112 1.27v1.553zM31.262 41.467c-.007-.075-.018-.284-.051-.489-.617-3.712-1.235-7.425-1.856-11.137-.506-3.022-1.002-6.044-1.536-9.063-.238-1.347-1.563-1.98-2.635-1.306-.66.42-.906 1.16-.742 2.137.667 3.97 1.33 7.938 1.988 11.907.46 2.765.925 5.53 1.395 8.295.19 1.103.95 1.734 1.919 1.633.912-.094 1.528-.84 1.518-1.977zm8.724-1.686c-.498-5.468-.981-10.859-1.483-16.242-.098-1.058-.081-2.133-.365-3.166a1.595 1.595 0 00-1.622-1.206c-.749 0-1.283.377-1.585 1.058-.173.394-.131.817-.095 1.231.27 3.107.539 6.213.823 9.317.282 3.08.561 6.16.879 9.235.115 1.12.9 1.794 1.839 1.708 1.009-.094 1.639-.89 1.609-1.935zm5.213-10.25c0 2.813-.015 5.625 0 8.425.009 1.21.714 2.003 1.71 2.032 1.024.028 1.746-.782 1.791-2.032V21.259c0-1.128-.48-1.828-1.331-2.03-1.231-.298-2.163.552-2.17 2.03-.011 2.76 0 5.516 0 8.272zm13.864-8.075c.056-1.42-.499-2.187-1.491-2.292-1.01-.101-1.82.616-1.947 1.774a8389.6 8389.6 0 00-1.689 15.095c-.136 1.22.506 2.114 1.548 2.222.952.1 1.741-.59 1.893-1.757.251-1.93.453-3.867.668-5.803.349-3.143.696-6.292 1.017-9.239zm10.492-.43a5.603 5.603 0 00-.113-.703 1.698 1.698 0 00-1.63-1.2c-.848.013-1.468.532-1.718 1.525-1.138 4.5-2.266 9.003-3.385 13.507-.141.452-.108.94.093 1.37a1.67 1.67 0 001.718.969c.793-.058 1.335-.59 1.563-1.511.844-3.344 1.68-6.69 2.51-10.038.324-1.33.654-2.664.966-3.92h-.004z" fill="#FBE303"/><path d="M.014 2.828C.73 1.814 1.756 1.713 2.897 1.734c2.939.046 5.88.013 8.819.016 1.42 0 1.953.428 2.25 1.842.601 2.866 1.19 5.74 1.778 8.61.61 3.125 1.212 6.265 1.836 9.393 1.637 8.22 3.28 16.436 4.93 24.65.293 1.458.685 2.88 1.691 4.041 1.774 2.531 4.288 3.603 7.296 3.61 7.26.02 14.519 0 21.778 0h17.642c1.322 0 2.108.695 2.08 1.796a1.665 1.665 0 01-1.406 1.625 5.379 5.379 0 01-.855.046H31.548c-5.82 0-10.625-3.49-12.068-8.861-.625-2.355-1.02-4.774-1.499-7.168a64056.32 64056.32 0 01-6.805-33.99c-.137-.686-.09-1.597-.514-1.986-.468-.433-1.392-.124-2.117-.13-1.976-.017-3.956-.044-5.937 0-1.08.038-1.996-.158-2.594-1.15v-1.25zm20.881 66.747a8.686 8.686 0 1117.372-.036 8.686 8.686 0 01-17.372.036zm52.117.019a8.688 8.688 0 11-8.637-8.712 8.694 8.694 0 018.637 8.712z" fill="#454950"/></svg>