<svg width="80" height="80" fill="none" xmlns="http://www.w3.org/2000/svg"><path d="M.019 74.356c.897-2.207 1.562-4.497 2.319-6.754a5582.72 5582.72 0 007.56-22.69c.649-1.943 1.308-2.412 3.37-2.412 1.04 0 2.082.027 3.124-.01.502-.018.782.12 1.024.594 4.415 8.524 10.396 15.838 17.428 22.327 3.039 2.813 7.36 2.742 10.38-.058 6.414-5.937 11.93-12.61 16.275-20.219.398-.7.78-1.406 1.128-2.137.18-.386.407-.522.834-.511 1.222.03 2.445 0 3.669.01 1.536 0 2.358.59 2.85 2.05 1.051 3.124 2.087 6.25 3.125 9.385 2.2 6.602 4.402 13.204 6.604 19.805.07.21.057.469.277.625v1.406c-.817 1.508-2.145 1.755-3.74 1.744-8.063-.055-16.126-.025-24.19-.025h-49c-.86 0-1.67-.099-2.29-.756a11.82 11.82 0 01-.747-.968v-1.406z" fill="#FBE303"/><path d="M62.5 25.211a31.138 31.138 0 01-2.015 10.369c-2.889 7.783-7.587 14.41-13.108 20.514a75.738 75.738 0 01-5.43 5.495c-1.332 1.199-2.557 1.22-3.862.01-6.198-5.757-11.594-12.163-15.66-19.616-2.329-4.272-4.023-8.772-4.712-13.626-1.56-10.96 5.1-21.572 15.632-24.832C44.75 0 57.004 6.071 61.095 17.277c.937 2.545 1.357 5.168 1.406 7.934zM40 35.001a10 10 0 10-9.982-9.982A10.011 10.011 0 0040.001 35z" fill="#454950"/><path d="M40 35a10 10 0 1110-9.962A10.013 10.013 0 0140 35z" fill="#FEFEFE"/></svg>