<svg width="180" height="46" fill="none" xmlns="http://www.w3.org/2000/svg"><rect x="1.788" y="7.153" width="35.764" height="35.764" rx="5.961" fill="#FCEC41"/><rect y="8.941" width="35.764" height="35.764" rx="5.961" fill="#FBE303"/><path fill-rule="evenodd" clip-rule="evenodd" d="M14.91 14.99a.65.65 0 00-.264.262c-.08.166-.072.316.14 2.494.124 1.275.225 2.372.224 2.439-.012.668-1.02.79-1.221.146-.028-.09-.102-.716-.165-1.394a29.927 29.927 0 00-.137-1.301c-.028-.088-.636.234-1.38.73a9.997 9.997 0 00-3.438 3.952 11.623 11.623 0 00-.771 2.214l-.093.433h-.37c-.534 0-.765.084-1.077.391-.376.37-.48.762-.333 1.254.087.288.528.722.82.807.169.05 2.701.064 11.047.064 12.214 0 11.136.039 11.554-.419.477-.523.477-1.156 0-1.678-.28-.308-.575-.42-1.108-.42h-.38l-.093-.431c-.435-2.03-1.62-4.029-3.198-5.396-.812-.704-2.339-1.662-2.391-1.502-.013.039-.076.636-.14 1.328-.065.692-.149 1.334-.187 1.427-.081.197-.357.381-.571.381-.322 0-.62-.279-.625-.587 0-.066.1-1.165.224-2.441.223-2.286.225-2.324.128-2.5-.19-.348-.14-.342-3.232-.34-2.48 0-2.805.01-2.964.087zM8.967 29.207a1.711 1.711 0 00-1.279 1.382l-.037.247h-.715c-.688 0-.72.004-.846.128-.13.128-.13.137-.13 1.13 0 .992 0 1.001.13 1.129.126.124.157.129.852.129h.72v.914c0 .508.025.979.056 1.06.075.197 1.947 2.052 2.165 2.146.252.108 5.522.108 5.784 0 .186-.077.203-.096.856-.96.461-.612 1.239-1.431 1.357-1.431.12 0 .897.819 1.358 1.43.653.865.67.884.856.96.263.109 5.532.109 5.784 0 .218-.093 2.09-1.948 2.165-2.144.03-.082.055-.553.055-1.061v-.914h.721c.695 0 .726-.005.852-.13.13-.127.13-.136.13-1.128 0-.993 0-1.002-.13-1.13-.126-.124-.158-.128-.846-.128h-.715l-.037-.248a2.033 2.033 0 00-.421-.89c-.073-.085-.284-.236-.469-.334l-.335-.18-8.861-.008c-4.873-.004-8.933.01-9.02.03zm17.428 3.554v1.926l-.597.59-.598.59h-4.317l-.342-.458a11.867 11.867 0 00-.955-1.066c-1.105-1.091-1.747-1.24-2.688-.619-.452.298-1.207 1.056-1.685 1.694l-.337.45h-4.311l-.6-.59-.6-.588v-3.854h17.03v1.925z" fill="#171B24"/><path fill-rule="evenodd" clip-rule="evenodd" d="M12.518 7.153a7.153 7.153 0 0114.305 0H24.44a4.769 4.769 0 00-9.537 0h-2.384z" fill="#FDF074"/><path fill-rule="evenodd" clip-rule="evenodd" d="M10.73 8.941a7.153 7.153 0 017.152-7.153h.596a7.153 7.153 0 017.153 7.153h-2.384a4.769 4.769 0 00-4.769-4.768h-.596a4.769 4.769 0 00-4.768 4.768h-2.385z" fill="#FBE303"/><path d="M52.371 32.755c-.971 0-1.814-.108-2.528-.322-.714-.214-1.314-.514-1.8-.9a4.108 4.108 0 01-1.092-1.35 4.957 4.957 0 01-.472-1.735h2.571c.057.3.15.572.279.814.143.243.343.457.6.643.257.186.578.329.964.429.4.1.892.15 1.478.15.6 0 1.107-.05 1.521-.15.429-.115.771-.258 1.029-.429.27-.186.464-.4.578-.643a1.79 1.79 0 00.193-.814c0-.7-.329-1.228-.986-1.585-.642-.357-1.65-.679-3.02-.964a14.857 14.857 0 01-2.057-.6c-.6-.243-1.1-.536-1.5-.878a3.655 3.655 0 01-.921-1.265c-.2-.5-.3-1.092-.3-1.778 0-.557.114-1.085.343-1.585.242-.5.592-.936 1.05-1.307.456-.371 1.02-.664 1.692-.878.685-.215 1.478-.322 2.378-.322.871 0 1.636.1 2.292.3.658.2 1.207.486 1.65.857a3.63 3.63 0 011.05 1.285c.257.5.414 1.05.471 1.65h-2.57a2.066 2.066 0 00-.879-1.307c-.457-.343-1.128-.514-2.014-.514-1.028 0-1.771.179-2.228.536-.443.357-.664.785-.664 1.285 0 .686.285 1.2.857 1.543.571.343 1.45.635 2.635.878a16.7 16.7 0 012.292.643c.672.243 1.229.55 1.672.921.442.357.77.786.985 1.286.228.5.343 1.1.343 1.8 0 .613-.122 1.185-.364 1.713a3.645 3.645 0 01-1.114 1.371c-.486.386-1.1.686-1.843.9-.728.214-1.585.322-2.57.322zm12.759-.129c-1.3 0-2.236-.279-2.807-.836-.557-.557-.836-1.456-.836-2.699v-5.913H59.88v-2.014h1.607v-2.571h2.357v2.571h2.892v2.014h-2.892v5.592c0 .67.121 1.142.364 1.414.257.257.743.385 1.457.385.428 0 .857-.021 1.285-.064v2.014c-.27.028-.55.05-.835.064a9.888 9.888 0 01-.986.043zm4.186-11.462H71.5v1.928c.228-.585.6-1.092 1.114-1.521.528-.429 1.178-.643 1.95-.643.357 0 .62.015.792.043.186.029.314.057.386.086v2.142a4.773 4.773 0 00-.664-.15 3.537 3.537 0 00-.729-.064c-.471 0-.878.086-1.22.257-.33.157-.6.371-.815.643a2.71 2.71 0 00-.493.921c-.1.343-.15.7-.15 1.071v6.642h-2.356V21.164zm13.066 11.591a6.563 6.563 0 01-2.207-.365 5.119 5.119 0 01-1.757-1.114 5.12 5.12 0 01-1.178-1.8c-.286-.728-.428-1.57-.428-2.527v-.429c0-.9.142-1.692.428-2.378a4.95 4.95 0 011.178-1.757c.5-.486 1.086-.85 1.757-1.093a6.563 6.563 0 012.207-.364c.785 0 1.514.122 2.185.364a4.943 4.943 0 012.957 2.85c.285.685.428 1.478.428 2.378v.428c0 .957-.143 1.8-.428 2.529a5.122 5.122 0 01-1.179 1.8c-.5.485-1.092.856-1.778 1.113-.671.243-1.4.364-2.185.364zm0-2.057c.414 0 .807-.072 1.178-.214a2.642 2.642 0 001.007-.665c.3-.3.536-.685.707-1.156.186-.472.279-1.043.279-1.715v-.428c0-.614-.093-1.143-.279-1.585a2.955 2.955 0 00-.707-1.093 2.763 2.763 0 00-1.007-.643 3.253 3.253 0 00-1.178-.214c-.414 0-.814.071-1.2.214a3.023 3.023 0 00-1.007.643 3.36 3.36 0 00-.707 1.093c-.171.442-.257.97-.257 1.585v.428c0 .672.086 1.243.257 1.715.186.47.421.857.707 1.156.3.3.636.522 1.007.665a3.45 3.45 0 001.2.214zm9.321 6.342c-.214 0-.428-.022-.642-.065v-2.057c.214.043.428.065.642.065.243 0 .443-.043.6-.129.172-.071.321-.207.45-.407a3.27 3.27 0 00.407-.75c.143-.314.3-.707.471-1.178l-4.82-11.355h2.57l3.472 8.784 3.128-8.784h2.399l-4.392 11.355c-.314.8-.607 1.485-.878 2.057-.272.57-.572 1.035-.9 1.392a2.897 2.897 0 01-1.071.814c-.4.172-.879.257-1.436.257zm10.607-19.518h2.357v8.591l4.713-4.949h2.785l-4.585 4.82 5.014 6.535h-2.828l-3.75-5.035-1.349 1.371v3.664h-2.357V17.522zm15.33 15.233c-.614 0-1.164-.086-1.65-.258a3.638 3.638 0 01-1.199-.75 3.337 3.337 0 01-.75-1.135 3.762 3.762 0 01-.257-1.414c0-1.128.335-1.964 1.007-2.507.671-.557 1.656-.835 2.956-.835h3.535v-.621c0-.857-.193-1.443-.578-1.757-.372-.329-.964-.493-1.778-.493-.729 0-1.265.114-1.607.343a1.311 1.311 0 00-.6.942h-2.293c.029-.485.15-.928.365-1.328a3.46 3.46 0 01.921-1.071c.4-.3.878-.528 1.435-.686.557-.171 1.186-.257 1.886-.257.699 0 1.328.079 1.885.236a3.72 3.72 0 011.457.75c.4.328.707.757.921 1.285.229.529.343 1.164.343 1.907v4.52c0 .6.007 1.129.021 1.586.015.443.05.878.107 1.307h-2.142a107.78 107.78 0 01-.107-.836 14.33 14.33 0 01-.022-.857c-.271.529-.742.986-1.414 1.371-.657.372-1.471.557-2.442.557zm.643-2.057c.4 0 .778-.05 1.135-.15.372-.114.693-.271.964-.471.272-.215.486-.472.643-.772.171-.314.257-.671.257-1.071v-.621h-3.106c-.6 0-1.086.128-1.457.385-.357.257-.536.636-.536 1.136 0 .471.164.85.493 1.135.343.286.878.429 1.607.429zm13.823 2.057c-.972 0-1.814-.108-2.528-.322-.715-.214-1.314-.514-1.8-.9a4.112 4.112 0 01-1.093-1.35 4.956 4.956 0 01-.471-1.735h2.571c.057.3.15.572.278.814.143.243.343.457.6.643.257.186.579.329.964.429.4.1.893.15 1.479.15.6 0 1.107-.05 1.521-.15.428-.115.771-.258 1.028-.429.272-.186.464-.4.579-.643.128-.257.192-.528.192-.814 0-.7-.328-1.228-.985-1.585-.643-.357-1.65-.679-3.021-.964a14.882 14.882 0 01-2.057-.6c-.6-.243-1.099-.536-1.499-.878a3.666 3.666 0 01-.922-1.265c-.2-.5-.3-1.092-.3-1.778 0-.557.115-1.085.343-1.585a3.83 3.83 0 011.05-1.307c.457-.371 1.021-.664 1.693-.878.685-.215 1.478-.322 2.378-.322.871 0 1.635.1 2.292.3.657.2 1.207.486 1.65.857a3.64 3.64 0 011.05 1.285c.257.5.414 1.05.471 1.65h-2.571a2.065 2.065 0 00-.878-1.307c-.457-.343-1.129-.514-2.014-.514-1.029 0-1.771.179-2.228.536-.443.357-.665.785-.665 1.285 0 .686.286 1.2.857 1.543.572.343 1.45.635 2.636.878.871.186 1.635.4 2.292.643.671.243 1.228.55 1.671.921.443.357.771.786.986 1.286.228.5.342 1.1.342 1.8a4.05 4.05 0 01-.364 1.713 3.645 3.645 0 01-1.114 1.371c-.486.386-1.1.686-1.842.9-.729.214-1.586.322-2.571.322zm12.758-.129c-1.3 0-2.235-.279-2.807-.836-.557-.557-.835-1.456-.835-2.699v-5.913h-1.607v-2.014h1.607v-2.571h2.357v2.571h2.892v2.014h-2.892v5.592c0 .67.121 1.142.364 1.414.257.257.743.385 1.457.385.428 0 .857-.021 1.285-.064v2.014c-.271.028-.55.05-.835.064a9.902 9.902 0 01-.986.043zm9.009.129a6.569 6.569 0 01-2.207-.365 5.119 5.119 0 01-1.756-1.114 5.126 5.126 0 01-1.179-1.8c-.285-.728-.428-1.57-.428-2.527v-.429c0-.9.143-1.692.428-2.378.286-.7.679-1.285 1.179-1.757.5-.486 1.085-.85 1.756-1.093a6.569 6.569 0 012.207-.364c.786 0 1.514.122 2.185.364a4.945 4.945 0 012.957 2.85c.286.685.428 1.478.428 2.378v.428c0 .957-.142 1.8-.428 2.529-.286.714-.678 1.314-1.178 1.8-.5.485-1.093.856-1.779 1.113a6.374 6.374 0 01-2.185.364zm0-2.057c.414 0 .807-.072 1.179-.214a2.638 2.638 0 001.006-.665c.3-.3.536-.685.707-1.156.186-.472.279-1.043.279-1.715v-.428c0-.614-.093-1.143-.279-1.585a2.949 2.949 0 00-.707-1.093 2.759 2.759 0 00-1.006-.643 3.26 3.26 0 00-1.179-.214 3.43 3.43 0 00-1.2.214 3.028 3.028 0 00-1.007.643 3.38 3.38 0 00-.707 1.093c-.171.442-.257.97-.257 1.585v.428c0 .672.086 1.243.257 1.715.186.47.422.857.707 1.156.3.3.636.522 1.007.665a3.45 3.45 0 001.2.214zm7.919-9.534h2.185v1.928a3.73 3.73 0 011.114-1.521c.529-.429 1.179-.643 1.95-.643.357 0 .621.015.792.043.186.029.315.057.386.086v2.142a4.777 4.777 0 00-.664-.15 3.538 3.538 0 00-.728-.064c-.472 0-.879.086-1.222.257-.328.157-.6.371-.814.643a2.728 2.728 0 00-.493.921c-.1.343-.15.7-.15 1.071v6.642h-2.356V21.164zm13.066 11.591a6.597 6.597 0 01-2.142-.343 5.23 5.23 0 01-1.778-1.072c-.5-.485-.9-1.092-1.2-1.82-.3-.729-.45-1.586-.45-2.572v-.428c0-.943.143-1.764.428-2.464.286-.7.672-1.278 1.157-1.735a4.831 4.831 0 011.714-1.05 6.095 6.095 0 012.057-.343c1.728 0 3.049.464 3.963 1.393.929.928 1.393 2.257 1.393 3.985v1.2h-8.313c.015.585.107 1.085.279 1.5.186.4.421.728.707.985.3.243.635.421 1.007.535a4.12 4.12 0 001.178.172c.814 0 1.407-.129 1.778-.386.386-.257.65-.593.793-1.007h2.357c-.229 1.129-.793 1.986-1.693 2.571-.885.586-1.964.878-3.235.878zm-.107-9.77c-.4 0-.786.05-1.157.15-.357.1-.678.264-.964.493a2.38 2.38 0 00-.664.857c-.172.343-.264.764-.279 1.264h5.956c-.014-.529-.1-.971-.257-1.328a2.11 2.11 0 00-.6-.857 2.225 2.225 0 00-.921-.45 4.585 4.585 0 00-1.114-.129z" fill="#171B24"/></svg>