<svg width="52" height="52" fill="none" xmlns="http://www.w3.org/2000/svg"><path d="M0 26C0 11.64 11.64 0 26 0s26 11.64 26 26-11.64 26-26 26S0 40.36 0 26z" fill="#FCEC41"/><path d="M36.493 33.4c.844.509 1.566 1.21 2.497 1.581v13.061c0 .15-.03.305.082.436-2.755 1.672-5.75 2.684-8.918 3.205-.704.117-1.413.203-2.12.305h-4.471c-.043-.094-.13-.09-.213-.102a24.71 24.71 0 01-6.04-1.354c-1.471-.53-2.92-1.123-4.23-2V35.02l2.474-1.613c.102.192.056.398.056.598 0 2.47.011 4.94-.006 7.408 0 .413.102.548.534.547 6.596-.013 13.191-.013 19.788 0 .436 0 .529-.144.526-.55-.017-2.47-.01-4.939-.006-7.409.002-.199.031-.4.047-.601z" fill="#54BFE9"/><path d="M36.493 33.4c-.016.204-.045.407-.045.603 0 2.47-.01 4.94.006 7.408 0 .406-.09.55-.526.55a4595.56 4595.56 0 00-19.788 0c-.43 0-.537-.133-.534-.546.017-2.469.01-4.939.006-7.408 0-.203.044-.406-.056-.598 1.746-1.25 3.342-2.675 4.866-4.183.056.062.118.12.168.186 1.988 2.603 5.228 3.453 8.226 2.154 1.18-.508 2.076-1.357 2.85-2.356 1.139 1.145 2.3 2.266 3.59 3.242.413.313.824.632 1.237.949z" fill="#2F323A"/><path d="M35.718 16.532c.554.386.76.95.716 1.587-.086 1.26-.534 2.365-1.523 3.206a1.228 1.228 0 01-.982.325c-.233-.03-.333.071-.406.274a17.538 17.538 0 01-1.937 3.893c-.06.12-.107.246-.137.377a.62.62 0 00-.32.235c-.49.598-.98 1.193-1.594 1.677-1.463 1.156-3.056 1.751-4.927 1.171-1.207-.373-2.191-1.081-3.019-2.025-.32-.363-.664-.71-.996-1.061-.359-.629-.725-1.251-1.073-1.886-.4-.742-.74-1.515-1.015-2.31-.094-.267-.216-.386-.508-.344a1.066 1.066 0 01-.718-.191c-1.13-.697-1.965-2.723-1.638-3.998.101-.375.213-.761.696-.822.305 1.201.711 2.356 1.51 3.337a43.858 43.858 0 01-.354-4.225c.249.203.502.398.748.61.765.642 1.304.678 2.152.129a7.064 7.064 0 011.942-.84c1.616-.458 3.275-.44 4.927-.367 1.618.07 3.173.406 4.553 1.34.605.407 1.22.313 1.782-.132.305-.241.602-.489.903-.734a32.87 32.87 0 01-.457 4.422c.26-.31.488-.649.678-1.007.476-.83.69-1.753.997-2.64z" fill="#FEFEFD"/><path d="M16.055 14.327c-.274-1.5-.084-2.967.413-4.384 1.455-4.137 4.977-6.703 9.356-6.865 5.044-.188 9.663 3.874 10.14 8.901.076.808.064 1.62-.037 2.426a6.512 6.512 0 00-1.594-1.142c-2.27-1.152-4.703-1.567-7.223-1.584a5.918 5.918 0 00-2.322 0c-.572.016-1.141.034-1.713.092-2.56.262-4.97.905-7.02 2.556z" fill="#FE7058"/><path d="M16.055 14.328c2.05-1.652 4.46-2.295 7.02-2.557a23.634 23.634 0 011.713-.092h2.322c2.52.017 4.952.432 7.223 1.584a6.51 6.51 0 011.594 1.142l-.086.214c-.476.341-.923.72-1.338 1.134-.305.245-.6.493-.903.734-.563.445-1.177.541-1.782.133-1.38-.932-2.935-1.27-4.553-1.34-1.652-.074-3.31-.092-4.927.366-.686.18-1.34.464-1.942.84-.848.55-1.387.513-2.152-.13-.246-.202-.499-.406-.748-.609a10.778 10.778 0 00-1.336-1.133c-.058-.083-.139-.165-.105-.287z" fill="#F0543F"/><path d="M13.081 48.537c-1.91-1.023-3.584-2.351-5.136-3.844a20.86 20.86 0 01-2.664-3.052c.651-1.422 1.396-2.778 2.57-3.844.858-.78 1.806-1.41 2.958-1.68.45-.102.819-.393 1.23-.59.349-.165.695-.338 1.042-.507v13.517zm33.658-6.897c-1.219 1.714-2.698 3.176-4.314 4.509a25.613 25.613 0 01-3.352 2.325c-.114-.13-.083-.287-.083-.436v-13.06c1.07.577 2.192 1.035 3.3 1.534 1.949.878 3.184 2.51 4.11 4.391.116.247.226.496.339.738z" fill="#2F323A"/><path d="M31.663 29.21c-.774.998-1.67 1.844-2.85 2.355-2.995 1.296-6.235.448-8.226-2.155-.05-.066-.112-.123-.168-.185 0-.538-.033-1.075.091-1.605.24.189.483.37.711.566 2.652 2.246 5.602 2.701 8.607.724.593-.391 1.052-.95 1.693-1.27.05.524.097 1.047.142 1.57z" fill="#FCFDFD"/><path d="M31.527 27.64c-.64.32-1.1.879-1.693 1.27-3.005 1.977-5.955 1.523-8.607-.724-.231-.196-.475-.377-.71-.566.007-.477-.047-.958.075-1.43.333.354.676.699.997 1.062.828.944 1.812 1.652 3.019 2.025 1.871.58 3.464-.015 4.927-1.17.61-.485 1.104-1.08 1.594-1.678a.62.62 0 01.32-.235c.023.48.05.962.078 1.446z" fill="#E5E9ED"/><path d="M34.503 15.753a10.82 10.82 0 011.338-1.134c.066.645-.124 1.273-.123 1.913-.305.888-.522 1.81-.994 2.636a5.83 5.83 0 01-.678 1.007c.252-1.462.404-2.939.457-4.422zM16.16 14.619c.475.34.922.72 1.336 1.133.052 1.411.168 2.816.355 4.225-.803-.98-1.208-2.133-1.51-3.337-.106-.67-.228-1.338-.181-2.021z" fill="#2F323A"/><path d="M27.11 11.68h-2.322a5.918 5.918 0 012.322 0z" fill="#E4785C"/></svg>