<svg width="52" height="52" fill="none" xmlns="http://www.w3.org/2000/svg"><path d="M0 26C0 11.64 11.64 0 26 0s26 11.64 26 26-11.64 26-26 26S0 40.36 0 26z" fill="#FCEC41"/><path d="M36.474 33.414l2.513 1.619c0 4.496.004 8.992.011 13.486-2.756 1.65-5.742 2.646-8.9 3.171-.688.115-1.397.078-2.068.305h-4.264c-.82-.244-1.68-.245-2.513-.406-2.898-.565-5.638-1.541-8.184-3.047V35.034l2.54-1.614c0 2.656.016 5.31 0 7.966 0 .473.134.582.59.58 4.875-.017 9.742-.01 14.613-.01 1.708 0 3.417-.015 5.125.01.431.007.543-.125.525-.54-.033-.778-.012-1.557-.008-2.337.005-1.893.011-3.785.02-5.675z" fill="#2F323A"/><path d="M36.474 33.414c-.01 1.896-.02 3.789-.028 5.68 0 .777-.025 1.556.008 2.335.018.416-.094.548-.525.542-1.709-.026-3.417-.011-5.125-.011-4.875 0-9.742-.007-14.613.01-.456 0-.595-.107-.591-.58.021-2.655.006-5.31 0-7.966l1.901-1.513c1.036-.82 1.947-1.776 2.913-2.672.078.088.16.171.233.265a6.734 6.734 0 007.283 2.387c1.559-.448 2.754-1.392 3.717-2.665.696.657 1.388 1.32 2.087 1.969.862.797 1.84 1.46 2.74 2.219z" fill="#FFB603"/><path d="M20.596 26.194c-.415-.733-.858-1.452-1.235-2.204-.332-.662-.598-1.358-.876-2.046-.086-.213-.165-.34-.432-.29-.313.058-.595-.068-.855-.244-1.052-.71-1.829-2.61-1.58-3.85.088-.438.278-.793.694-.995.328 1.219.71 2.416 1.545 3.411-.203-1.377-.285-2.753-.369-4.128.186-.01.37-.025.557-.025h15.911c.185 0 .371.016.556.024-.102 1.414-.186 2.83-.477 4.367.899-1.172 1.32-2.39 1.645-3.656.71.36.793 1.021.746 1.692a4.5 4.5 0 01-1.096 2.67c-.384.447-.824.812-1.475.721-.17-.024-.247.049-.298.194a17.892 17.892 0 01-2.031 4.063.995.995 0 00-.081.289c-.212.06-.328.226-.453.388-.61.793-1.31 1.496-2.166 2.031-1.32.83-2.722 1.148-4.248.656-1.188-.382-2.156-1.085-2.99-2.006-.326-.35-.572-.789-.992-1.062z" fill="#FEFEFE"/><path d="M16.265 12.086a10.543 10.543 0 011.219-3.366c.157-.27.213-.52.047-.805a3.075 3.075 0 01-.17-.422c-.36-.914-.256-1.32.525-2.056.573-.54 1.033-.61 1.847-.182.365.193.622.163.955-.07a8.713 8.713 0 012.875-1.336.977.977 0 00.751-.652c.444-1.131 1.042-1.462 2.215-1.24.591.113.914.574 1.098 1.095.163.462.432.685.907.812a8.786 8.786 0 012.821 1.344c.298.213.533.242.868.07 1.023-.525 1.94-.22 2.467.79.247.475.184.968-.043 1.422-.294.583-.246 1.062.093 1.641.53.904.835 1.916.998 2.96l-19.473-.005zM13.07 48.539c-1.444-.755-2.736-1.727-3.975-2.778a25.197 25.197 0 01-3.656-3.852 2.453 2.453 0 01-.158-.26c.65-1.396 1.368-2.742 2.524-3.806.866-.795 1.828-1.435 2.987-1.717.467-.114.846-.407 1.27-.61l1.001-.481c.003 4.5.006 9.001.007 13.504z" fill="#FFB603"/><path d="M34.512 15.844c-.185-.008-.37-.024-.556-.024H18.045c-.186 0-.371.016-.557.025a5.684 5.684 0 00-1.253-.006c-.406-.097-.83-.162-1.128-.508a1.423 1.423 0 01.66-2.315c.13-.04.259-.076.387-.113h19.698c.345.124.722.174.998.457a1.423 1.423 0 01-.647 2.382c-.146.04-.296.07-.443.102a5.578 5.578 0 00-1.248 0z" fill="#FECF5C"/><path d="M46.73 41.647c-.645.996-1.457 1.854-2.288 2.69A24.886 24.886 0 0139 48.514l-.011-13.486c1.159.579 2.385 1.025 3.532 1.61 2.081 1.062 3.322 2.904 4.21 5.009z" fill="#FFB603"/><path d="M31.65 29.221c-.963 1.274-2.158 2.218-3.717 2.666a6.733 6.733 0 01-7.282-2.39c-.072-.094-.155-.177-.233-.265-.006-.54-.009-1.079.102-1.611.458.372.906.757 1.376 1.117 2.31 1.74 5.067 1.883 7.553.432.749-.438 1.362-1.044 2.068-1.532l.133 1.583z" fill="#FEFDFD"/><path d="M35.852 12.905H16.155c-.034-.283.07-.546.11-.813h19.472c.093.26.132.537.115.813z" fill="#FFB603"/><path d="M31.513 27.633c-.706.488-1.32 1.094-2.068 1.532-2.486 1.451-5.244 1.309-7.553-.432-.47-.355-.914-.74-1.376-1.117-.015-.477-.039-.957.08-1.422.42.273.666.711.992 1.072.834.92 1.802 1.625 2.99 2.005 1.524.492 2.925.174 4.248-.656.856-.536 1.553-1.239 2.166-2.03.125-.162.241-.329.453-.389l.068 1.437z" fill="#E6E8ED"/><path d="M34.512 15.844a5.578 5.578 0 011.248 0l-.08.72c-.326 1.262-.747 2.48-1.645 3.657.293-1.545.38-2.956.477-4.377zm-18.277 0a5.684 5.684 0 011.253.006c.084 1.375.166 2.751.369 4.128-.836-.995-1.22-2.192-1.545-3.411-.026-.243-.05-.485-.077-.723z" fill="#2F323A"/></svg>