<svg width="52" height="52" fill="none" xmlns="http://www.w3.org/2000/svg"><path d="M0 26C0 11.64 11.64 0 26 0s26 11.64 26 26-11.64 26-26 26S0 40.36 0 26z" fill="#FCEC41"/><path d="M34.237 31.18l2.122 1.218c-.21 1.751-.149 3.51-.064 5.261.153 3.156.575 6.285 1 9.412.097.711.133 1.438.399 2.119a.635.635 0 01-.115.096 26.233 26.233 0 01-7.488 2.41c-.686.112-1.388.1-2.06.298h-4.164c-.054-.032-.101-.09-.161-.093-1.314-.06-2.597-.314-3.869-.625-1.895-.464-3.735-1.087-5.453-2.031.234-1.691.486-3.38.698-5.072.488-3.91.914-7.827.565-11.782.684-.459 1.489-.71 2.149-1.21.034.074.06.153.076.233.272 3.778.55 7.556.795 11.337.03.467.167.586.618.584 3.418-.018 6.836-.01 10.258-.01 1.1 0 2.2-.01 3.3.006.34.005.486-.089.48-.452-.004-.407.057-.813.086-1.22.215-3.087.42-6.174.655-9.26.028-.407-.06-.84.173-1.22z" fill="#FD7058"/><path d="M34.237 31.18c-.233.38-.145.812-.176 1.218-.236 3.087-.44 6.174-.655 9.262-.029.406-.09.812-.085 1.219.005.363-.142.457-.482.452-1.1-.016-2.2-.006-3.3-.006-3.417 0-6.835-.008-10.257.01-.451 0-.587-.117-.618-.584-.245-3.78-.523-7.559-.795-11.337a1.028 1.028 0 00-.076-.233c.664-.508 1.364-.968 1.944-1.584a5.348 5.348 0 001.117-1.651c.055.228.108.458.166.685.436 1.692 1.085 3.275 2.497 4.403 1.23.983 2.578 1.377 4.078.58a5.694 5.694 0 002.073-1.885c.778-1.153 1.16-2.455 1.475-3.785.672 1.422 1.865 2.348 3.094 3.236z" fill="#2F323A"/><path d="M34.746 17.063c.817.035 1.414.609 1.402 1.343-.012.735-.627 1.294-1.439 1.31-.235 0-.472-.023-.696.078l-1.198.009c-.14-.085-.297-.056-.447-.056H19.632c-.15 0-.305-.029-.447.056l-1.191-.012c-.222-.121-.462-.068-.695-.074-.756-.017-1.326-.473-1.435-1.157-.102-.64.364-1.274 1.088-1.493.094-.029.184-.076.275-.113 1.654 0 3.307 0 4.96.017.366 0 .446-.092.383-.472-.372-2.234-.685-4.486-1.07-6.723-.141-.821-.137-1.676-.477-2.462.116-.163.09-.354.108-.538.078-.802.732-1.475 1.539-1.484a315.22 315.22 0 016.695 0c.8.008 1.448.694 1.506 1.509.011.167 0 .337.005.507-.045.35-.08.702-.134 1.05-.433 2.756-.858 5.513-1.32 8.265-.071.423.09.449.406.448 1.644-.009 3.281-.009 4.918-.009z" fill="#FE7058"/><path d="M19.185 19.805c.14-.085.297-.056.447-.056h12.736c.15 0 .305-.029.447.056a8.457 8.457 0 01-.305 3.317c-.022.075.02.125.087.156a28.403 28.403 0 01-1.845 3.23c-.518.508-.99 1.049-1.54 1.528-1.887 1.643-4.537 1.643-6.424 0-.546-.478-1.022-1.02-1.54-1.528-.711-1.034-1.291-2.14-1.864-3.25a2.63 2.63 0 00-.007-.5c-.201-.978-.314-1.96-.192-2.953z" fill="#FEFDFC"/><path d="M14.385 49.239a24.762 24.762 0 01-7.21-5.346c.356-1.96.755-3.912 1.488-5.776.484-1.23 1.04-2.42 1.883-3.453.12-.163.284-.289.473-.361 1.578-.553 3.114-1.209 4.63-1.913.345 3.952-.075 7.868-.564 11.782-.214 1.688-.466 3.376-.7 5.067zm30.388-5.317a25.735 25.735 0 01-7.083 5.265c-.266-.68-.305-1.409-.398-2.119-.426-3.127-.848-6.256-1-9.412-.086-1.752-.147-3.51.063-5.26a43.008 43.008 0 004.586 1.889c.392.132.588.444.796.744 1.166 1.676 1.812 3.571 2.336 5.522.3 1.112.422 2.257.7 3.37z" fill="#2F323A"/><path d="M34.745 17.063c-1.636 0-3.273 0-4.909.006-.32 0-.482-.025-.406-.448.459-2.752.884-5.51 1.32-8.264.055-.349.09-.7.134-1.05 2.114 1.3 3.387 3.19 3.954 5.585.322 1.402.21 2.786-.093 4.17zm-13.722-9.75c.34.786.336 1.64.478 2.462.384 2.235.697 4.484 1.07 6.723.062.38-.018.476-.384.472-1.653-.015-3.306-.013-4.96-.017a8.92 8.92 0 013.796-9.64z" fill="#F0543F"/><path d="M31.148 27.94c-.315 1.331-.697 2.633-1.474 3.786A5.693 5.693 0 0127.6 33.61c-1.5.798-2.844.406-4.078-.579-1.412-1.128-2.06-2.71-2.496-4.402-.06-.228-.112-.458-.167-.686.012-.305.12-.583.217-.864.542.528 1.016 1.11 1.576 1.625 1.791 1.663 4.293 1.803 6.25.347.763-.569 1.354-1.302 2.016-1.97l.23.86z" fill="#FDFDFC"/><path d="M30.918 27.085c-.662.667-1.253 1.4-2.016 1.97-1.957 1.456-4.459 1.32-6.25-.348-.555-.517-1.034-1.1-1.576-1.625.051-.192.042-.407.172-.57.518.508.99 1.05 1.54 1.529 1.887 1.643 4.537 1.643 6.424 0 .55-.48 1.022-1.024 1.54-1.529.13.168.123.377.166.573z" fill="#E7E9ED"/><path d="M32.602 23.275c-.067-.031-.11-.081-.088-.156a8.455 8.455 0 00.305-3.317l1.198-.008c-.17 1.284-.501 2.503-1.415 3.481zm-13.417-3.47c-.122.997-.009 1.978.192 2.955.018.166.02.333.007.5-.476-.386-.687-.942-.9-1.483-.252-.636-.49-1.283-.491-1.985l1.192.013z" fill="#2F323A"/></svg>