<svg width="52" height="52" fill="none" xmlns="http://www.w3.org/2000/svg"><path d="M0 26C0 11.64 11.64 0 26 0s26 11.64 26 26-11.64 26-26 26S0 40.36 0 26z" fill="#FCEC41"/><path d="M5.291 41.648c.632-1.39 1.352-2.723 2.49-3.779a7.871 7.871 0 013.027-1.768c1.016-.32 1.918-.907 2.826-1.458a32.16 32.16 0 006.272-4.931c.082-.082.135-.253.315-.175-.39.61-.788 1.211-1.17 1.823a30.293 30.293 0 00-3.624 8.602c-.101.406.036.465.382.46.897-.012 1.794.006 2.69-.01.363-.005.517.048.418.482-.221.969-.356 1.957-.577 2.926-.085.376.026.57.325.742a9.926 9.926 0 012.212 1.756 23.953 23.953 0 012.336 2.86c.65.922 1.371 1.796 1.88 2.812h-1.53c-.827-.227-1.688-.254-2.523-.425-5.538-1.132-10.247-3.756-14.126-7.873-.592-.63-1.227-1.252-1.623-2.044zm31.085-8.328a34.472 34.472 0 004.35 2.59c.592.293 1.254.38 1.835.711 2.007 1.16 3.281 2.91 4.158 5.003-.425.862-1.117 1.518-1.755 2.2a26.101 26.101 0 01-14.85 7.864l-1.982.305h-1.218c.595-.858 1.18-1.727 1.79-2.574 1.372-1.907 2.804-3.758 4.884-4.976.224-.131.22-.285.173-.508-.209-1.023-.38-2.053-.6-3.072-.079-.365.039-.453.369-.45.844.01 1.689 0 2.533 0 .742 0 .72.006.54-.735-.285-1.166-.725-2.28-1.1-3.417l.416-1.136c.203.145.062.383.248.532.241-.777.176-1.561.209-2.336z" fill="#E8E9EA"/><path d="M35.503 36.263c.375 1.136.813 2.252 1.1 3.418.18.74.203.735-.54.735-.844 0-1.69.007-2.533 0-.33 0-.448.084-.37.449.22 1.015.392 2.05.601 3.072.046.224.051.378-.173.508-2.08 1.212-3.512 3.065-4.884 4.976-.61.85-1.195 1.716-1.79 2.574h-1.828c-.508-1.016-1.231-1.89-1.88-2.812a23.936 23.936 0 00-2.336-2.86 9.926 9.926 0 00-2.212-1.756c-.3-.171-.406-.366-.325-.742.221-.969.356-1.957.577-2.926.102-.433-.055-.487-.419-.481-.895.015-1.792 0-2.689.009-.346.005-.485-.057-.382-.46a30.295 30.295 0 013.624-8.601c.382-.61.779-1.22 1.17-1.823.237-.097.283-.382.496-.503-.006.115-.02.23-.044.343-.894 3.008-.406 5.89.783 8.712 0 .055.016.096.08.102h-.008c0 .05.005.1.016.149l2.79 7.82 1.743 4.87 4.552-12.95.285-.711c.61.068 1.197.228 1.821.284l-.742.287c.959.244 1.837.155 2.61-.483.396-.334.646-.77.907-1.2z" fill="#F6F6F6"/><path d="M21.046 28.234c-.376-.532-.754-1.063-1.127-1.596-.609-.869-1.003-1.85-1.506-2.775-.259-.812-.527-1.63-.772-2.45a1.207 1.207 0 00-.436-.631c-1.22-1-1.768-2.307-1.57-3.88.089-.7.425-.966 1.123-.956.28 0 .3-.132.323-.323.431.241.764.61 1.136.914.757.637 1.329.696 2.16.166a7.453 7.453 0 012.037-.876c1.553-.427 3.142-.435 4.726-.364 1.63.072 3.208.395 4.616 1.314.703.46 1.285.37 1.95-.174.406-.33.76-.718 1.213-.985.024.191.043.328.323.323.697-.01.988.261 1.132.953.267 1.289-.497 3.154-1.612 3.915-.17.117-.305.224-.36.45a19.27 19.27 0 01-.873 2.621l-.962 1.974-1.377 2.03a.57.57 0 00-.213.35c-.428.378-.846.766-1.285 1.132-1.995 1.665-4.545 1.98-6.795.43-.672-.466-1.255-1.017-1.851-1.562z" fill="#FECF5B"/><path d="M15.97 14.515c-.338-3.86.997-6.997 4.108-9.317 5.576-4.16 13.855-1.205 15.593 5.533.304 1.178.408 2.4.304 3.611l-.046.188c-.391-.143-.626-.497-.975-.71-2.078-1.245-4.367-1.801-6.743-1.908-2.017-.09-4.047-.143-6.063.172a15.45 15.45 0 00-4.422 1.365c-.624.309-1.136.77-1.756 1.066z" fill="#FE7058"/><path d="M30.907 37.375l-.285.711c-.573.194-1.143.397-1.72.579-1.516.47-3.118.593-4.688.36-.947-.132-1.8-.53-2.689-.834h.008l-.08-.102c-1.184-2.82-1.677-5.704-.783-8.712.024-.113.038-.228.044-.343v.013c.095-.017.089-.054.019-.102.06-.101.12-.203.18-.311.183.812.7 1.41 1.314 1.924 1.289 1.08 2.773 1.517 4.454 1.344a5.867 5.867 0 003.082-1.277c.61-.475 1.015-1.117 1.471-1.711l.093.143c.367 1.07.557 2.19.564 3.321.016.833-.175 1.641-.196 2.467-.26.626-1.286.824-2.06.655-.398-.086-.787-.213-1.219-.333.193.702.598 1.171 1.128 1.561.417.304.925.404 1.363.647z" fill="#FECF5B"/><path d="M15.97 14.515c.62-.295 1.132-.757 1.759-1.062a15.45 15.45 0 014.422-1.367c2.016-.315 4.046-.262 6.063-.172 2.375.102 4.665.664 6.743 1.908.35.209.584.563.975.71.046.214-.137.282-.252.389-.254.235-.554.419-.76.71-.455.268-.813.655-1.214.986-.665.543-1.247.632-1.95.173-1.408-.919-2.985-1.242-4.616-1.314-1.584-.071-3.173-.063-4.726.365a7.454 7.454 0 00-2.038.875c-.83.53-1.402.471-2.159-.165-.372-.313-.705-.679-1.136-.914-.321-.407-.776-.672-1.136-1.04a.11.11 0 01.025-.082z" fill="#F0543F"/><path d="M30.907 37.375c-.442-.238-.945-.338-1.36-.642-.53-.39-.936-.86-1.129-1.56.434.119.823.246 1.219.332.774.169 1.8-.03 2.06-.655.25-.063.322-.285.4-.482.64-1.618.546-3.223-.113-4.812-.127-.62-.426-1.16-.796-1.663l1.377-2.031c2.178 2.023 3.575 4.445 3.809 7.46-.033.775.032 1.56-.209 2.336-.187-.149-.045-.387-.248-.532l-.416 1.136c-.26.43-.508.866-.908 1.195-.772.638-1.65.726-2.609.483l.742-.287c-.622-.055-1.213-.215-1.819-.278z" fill="#2F323A"/><path d="M31.235 28.909c-.46.597-.866 1.236-1.472 1.711a5.867 5.867 0 01-3.082 1.277c-1.681.173-3.165-.264-4.454-1.344-.61-.514-1.131-1.11-1.313-1.925l.132-.393c.596.544 1.179 1.095 1.85 1.556 2.249 1.55 4.8 1.236 6.794-.43.438-.365.857-.753 1.284-1.13l.26.678z" fill="#F8B54C"/><path d="M34.92 15.624c.202-.286.507-.47.76-.71.115-.102.298-.175.252-.389l.046-.187c1.123 2.689.803 5.245-.717 7.687a8.14 8.14 0 01-1.32 1.6c-.117.111-.21.276-.412.256.353-.851.645-1.727.873-2.62.055-.226.19-.334.36-.45 1.117-.762 1.879-2.627 1.612-3.916-.144-.692-.435-.963-1.132-.953-.28.01-.3-.127-.323-.318zm-18.975-1.039c.36.368.813.631 1.136 1.04-.024.19-.043.328-.323.322-.698-.01-1.034.256-1.122.956-.204 1.573.349 2.88 1.569 3.88.21.157.363.378.436.63.245.821.513 1.635.772 2.451-.462-.209-.746-.615-1.047-.989-1.916-2.382-2.497-5.035-1.577-7.98.043-.107.096-.21.156-.31z" fill="#2F323A"/><path d="M20.733 28.945c.07.05.076.087-.02.102.006-.038.014-.072.02-.102z" fill="#FEFDFD"/><path d="M21.525 38.188c.889.304 1.742.702 2.69.833a10.55 10.55 0 004.687-.36c.576-.18 1.147-.384 1.72-.578l-4.548 12.94-1.743-4.87-2.79-7.821a.598.598 0 01-.016-.144z" fill="#FE7159"/><path d="M21.453 38.086l.08.102c-.064 0-.08-.043-.08-.102z" fill="#FE7159"/><path d="M31.327 29.052c.28.087.374.418.66.499.658 1.59.752 3.194.112 4.812-.078.197-.15.42-.4.482.021-.822.212-1.634.192-2.467a10.418 10.418 0 00-.564-3.326z" fill="#F9F9F8"/></svg>